<?xml version="1.0" encoding="UTF-8"?>
<!DOCTYPE svg PUBLIC "-//W3C//DTD SVG 1.1//EN" "http://www.w3.org/Graphics/SVG/1.1/DTD/svg11.dtd">
<svg xmlns="http://www.w3.org/2000/svg" version="1.1" width="100px" height="100px" style="shape-rendering:geometricPrecision; text-rendering:geometricPrecision; image-rendering:optimizeQuality; fill-rule:evenodd; clip-rule:evenodd" xmlns:xlink="http://www.w3.org/1999/xlink">
<g><path style="opacity:0.973" fill="#0a849f" d="M 92.5,55.5 C 92.5,54.8333 92.1667,54.5 91.5,54.5C 91.5,53.8333 91.1667,53.5 90.5,53.5C 90.1583,52.6618 89.4916,52.3284 88.5,52.5C 87.4569,48.5122 85.4569,45.0122 82.5,42C 74.5053,40.2429 66.5053,39.7429 58.5,40.5C 58.6663,33.825 58.4996,27.1583 58,20.5C 56.0231,13.0949 51.5231,10.9282 44.5,14C 42.5125,15.3189 41.3459,17.1523 41,19.5C 40.5004,26.4921 40.3337,33.4921 40.5,40.5C 37.3019,41.0356 34.6353,40.369 32.5,38.5C 33.3382,38.1583 33.6716,37.4916 33.5,36.5C 34.8333,32.8333 34.8333,29.1667 33.5,25.5C 33.7678,23.901 33.4345,22.5676 32.5,21.5C 34.1593,8.49863 41.4926,2.99863 54.5,5C 59.5732,6.40561 63.0732,9.57227 65,14.5C 66.2386,20.4348 66.7386,26.4348 66.5,32.5C 74.2056,31.6646 81.5389,32.8312 88.5,36C 94.6663,41.7577 95.9996,48.2577 92.5,55.5 Z"/></g>
<g><path style="opacity:0.949" fill="#67a29a" d="M 32.5,21.5 C 32.2322,23.099 32.5655,24.4324 33.5,25.5C 33.5,29.1667 33.5,32.8333 33.5,36.5C 32.6618,36.8417 32.3284,37.5084 32.5,38.5C 29.4616,43.9583 31.1283,47.7916 37.5,50C 40.8692,50.6626 44.2025,50.4959 47.5,49.5C 49.1966,49.8988 50.8632,50.3988 52.5,51C 56.7905,57.0803 60.9571,63.2469 65,69.5C 74.3944,77.3442 81.7278,75.6775 87,64.5C 88.0793,61.9373 88.5793,59.2706 88.5,56.5C 82.062,56.0902 75.7287,55.0902 69.5,53.5C 63.7108,55.4382 60.0441,53.4382 58.5,47.5C 60.1645,42.0004 63.8312,40.1671 69.5,42C 71.8477,44.354 72.5144,47.0206 71.5,50C 76.9902,51.8885 82.6568,52.7219 88.5,52.5C 88.8417,53.3382 89.5084,53.6716 90.5,53.5C 91.1667,53.5 91.5,53.8333 91.5,54.5C 92.1667,54.5 92.5,54.8333 92.5,55.5C 92.1433,64.3805 88.4766,71.5471 81.5,77C 75.8733,79.1706 70.54,78.6706 65.5,75.5C 65.5,74.8333 65.1667,74.5 64.5,74.5C 64.5,73.8333 64.1667,73.5 63.5,73.5C 63.5,72.8333 63.1667,72.5 62.5,72.5C 62.5,71.8333 62.1667,71.5 61.5,71.5C 61.5,70.8333 61.1667,70.5 60.5,70.5C 60.5,69.8333 60.1667,69.5 59.5,69.5C 57.2385,64.4799 54.5718,59.6466 51.5,55C 45.8561,54.232 40.1895,53.5654 34.5,53C 30.6599,50.3256 27.3266,47.1589 24.5,43.5C 21.7062,42.7465 19.0396,41.7465 16.5,40.5C 16.5,39.8333 16.1667,39.5 15.5,39.5C 15.5,38.8333 15.1667,38.5 14.5,38.5C 14.5,37.8333 14.1667,37.5 13.5,37.5C 13.5,36.8333 13.1667,36.5 12.5,36.5C 8.95279,31.0916 8.61946,25.4249 11.5,19.5C 16.6169,17.4485 18.4502,19.1151 17,24.5C 15.1554,25.0495 13.6554,26.0495 12.5,27.5C 13.8314,30.8338 15.6647,33.8338 18,36.5C 26.2748,40.2237 30.2748,37.557 30,28.5C 29.6466,25.4615 28.4799,22.7948 26.5,20.5C 21.2334,23.9244 18.7334,22.591 19,16.5C 20.1332,14.7888 21.6332,14.2888 23.5,15C 27.3144,16.222 30.3144,18.3887 32.5,21.5 Z"/></g>
<g><path style="opacity:0.974" fill="#71b2a9" d="M 12.5,36.5 C 13.1667,36.5 13.5,36.8333 13.5,37.5C 14.1667,37.5 14.5,37.8333 14.5,38.5C 15.1667,38.5 15.5,38.8333 15.5,39.5C 16.1667,39.5 16.5,39.8333 16.5,40.5C 15.9688,42.5441 14.8022,44.2107 13,45.5C 11.5568,50.212 12.7235,54.0453 16.5,57C 24.4148,58.4011 32.4148,58.9011 40.5,58.5C 40.3337,65.5079 40.5004,72.5079 41,79.5C 45.0142,88.2926 50.3476,89.2926 57,82.5C 57.9656,78.06 58.7989,73.7267 59.5,69.5C 60.1667,69.5 60.5,69.8333 60.5,70.5C 61.1667,70.5 61.5,70.8333 61.5,71.5C 62.1667,71.5 62.5,71.8333 62.5,72.5C 63.1667,72.5 63.5,72.8333 63.5,73.5C 64.1667,73.5 64.5,73.8333 64.5,74.5C 65.1667,74.5 65.5,74.8333 65.5,75.5C 65.2428,92.2097 56.9095,98.043 40.5,93C 33.0913,85.723 30.4246,76.8896 32.5,66.5C 24.7944,67.3354 17.4611,66.1688 10.5,63C 4.83268,57.6811 2.99934,51.1811 5,43.5C 6.23048,40.2677 8.23048,37.6011 11,35.5C 11.3826,36.056 11.8826,36.3893 12.5,36.5 Z"/></g>
</svg>
